<?xml version="1.0" encoding="UTF-8"?>
<svg xmlns="http://www.w3.org/2000/svg" xmlns:xlink="http://www.w3.org/1999/xlink" width="100px" height="62px" viewBox="0 0 100 62" version="1.1">
<g id="surface1">
<path style=" stroke:none;fill-rule:nonzero;fill:rgb(100%,79.607843%,0%);fill-opacity:1;" d="M 50.152344 61.261719 C 45.78125 61.15625 42.171875 59.226562 39.867188 55.195312 C 37.507812 51.027344 37.609375 46.761719 40.128906 42.699219 C 46.121094 33.027344 52.195312 23.410156 58.230469 13.769531 C 59.464844 11.796875 60.671875 9.796875 61.960938 7.859375 C 65.527344 2.355469 72.828125 0.699219 78.421875 4.117188 C 84.101562 7.621094 86.003906 14.910156 82.464844 20.652344 C 75.230469 32.441406 67.894531 44.171875 60.457031 55.84375 C 58.164062 59.457031 54.6875 61.195312 50.152344 61.261719 Z M 50.152344 61.261719 "/>
<path style=" stroke:none;fill-rule:nonzero;fill:rgb(100%,23.921569%,34.117647%);fill-opacity:1;" d="M 12.589844 61.261719 C 8.175781 61.15625 4.585938 59.136719 2.328125 55.125 C 0 50.957031 0.148438 46.683594 2.675781 42.621094 C 9.121094 32.269531 15.601562 21.929688 22.105469 11.605469 C 22.929688 10.273438 23.753906 8.90625 24.632812 7.613281 C 28.34375 2.230469 35.65625 0.769531 41.148438 4.3125 C 46.640625 7.859375 48.332031 15.125 44.960938 20.730469 C 37.753906 32.378906 30.445312 43.984375 23.136719 55.578125 C 20.761719 59.335938 17.269531 61.195312 12.589844 61.261719 Z M 12.589844 61.261719 "/>
<path style=" stroke:none;fill-rule:nonzero;fill:rgb(0%,83.921569%,27.843137%);fill-opacity:1;" d="M 87.960938 37.65625 C 94.613281 37.6875 100 42.980469 99.988281 49.46875 C 99.988281 56.054688 94.457031 61.367188 87.742188 61.285156 C 81.027344 61.199219 75.738281 55.96875 75.746094 49.449219 C 75.753906 42.839844 81.160156 37.613281 87.960938 37.65625 Z M 87.960938 37.65625 "/>
</g>
</svg>
